<?xml version="1.0" encoding="UTF-8" standalone="no"?>
<!-- Created with Inkscape (http://www.inkscape.org/) -->

<svg
   width="11.940001mm"
   height="11.94mm"
   viewBox="0 0 11.940002 11.94"
   version="1.1"
   id="svg1"
   xmlns="http://www.w3.org/2000/svg"
   xmlns:svg="http://www.w3.org/2000/svg">
  <defs
     id="defs1" />
  <g
     id="layer1"
     transform="translate(-19.901739,11.277651)">
    <g
       id="g19"
       transform="translate(0.42282735,0.21148449)">
      <path
         id="path1-0"
         style="fill:#ba4c4c;fill-opacity:1;stroke-width:0.20519"
         d="m 25.449343,-10.149018 c -2.55718,3.3e-5 -4.630175,2.073029 -4.630208,4.6302086 3.3e-5,2.5571795 2.073028,4.63017485 4.630208,4.63020832 2.55718,-3.292e-5 4.630176,-2.07302842 4.630209,-4.63020832 -3.3e-5,-2.55718 -2.073029,-4.6301756 -4.630209,-4.6302086 z m -2.3e-5,1.2973424 c 1.840668,5.25e-5 3.332813,1.4921966 3.332866,3.3328662 -5.3e-5,1.8406696 -1.492198,3.3328137 -3.332866,3.3328662 -1.840853,2.055e-4 -3.333282,-1.4920142 -3.333335,-3.3328662 5.3e-5,-1.840852 1.492482,-3.3330717 3.333335,-3.3328662 z" />
    </g>
  </g>
</svg>
