<?xml version="1.0" encoding="UTF-8" standalone="no"?>
<!-- Created with Inkscape (http://www.inkscape.org/) -->

<svg
   width="18.860001mm"
   height="11.94mm"
   viewBox="0 0 18.860001 11.94"
   version="1.1"
   id="svg1"
   xmlns="http://www.w3.org/2000/svg"
   xmlns:svg="http://www.w3.org/2000/svg">
  <defs
     id="defs1" />
  <g
     id="layer1"
     transform="translate(-53.544731,11.108414)">
    <path
       style="fill:#d8dee3;fill-opacity:1;stroke-width:0.264583"
       d="m 22.981969,7.2052003 c 0.719459,-0.8803573 2.613334,-2.0669287 4.447971,-2.0669287 1.834461,0 3.573513,1.2636232 4.342199,2.0729833 -0.7698,0.8083004 -2.510591,2.0695267 -4.345051,2.0669995 -1.834635,-0.00253 -3.726873,-1.1917065 -4.445119,-2.0730541 z"
       id="path2-3"
       transform="matrix(1.9056361,0,0,1.9056361,10.674422,-18.64767)" />
    <g
       id="g21"
       transform="translate(-0.43087207,0.05307317)">
      <path
         id="path2-5"
         style="fill:#5d7388;fill-opacity:1;stroke-width:0.264583"
         d="m 31.014776,6.5362512 a 3.7407294,1.9297065 0 0 1 -3.737359,1.8486123 3.7407294,1.9297065 0 0 1 -3.722986,-1.740684 c -0.232333,0.1913445 -0.426494,0.3824622 -0.572454,0.5610649 0.718245,0.8813476 2.610495,2.0703482 4.44513,2.0728755 1.83446,0.00253 3.575266,-1.2586092 4.345066,-2.0669096 -0.194863,-0.2051742 -0.45207,-0.439386 -0.757397,-0.6749591 z"
         transform="matrix(1.9056361,0,0,1.9056361,11.105496,-18.698231)" />
    </g>
  </g>
</svg>
