<?xml version="1.0" encoding="UTF-8" standalone="no"?>
<!-- Created with Inkscape (http://www.inkscape.org/) -->

<svg
   width="8mm"
   height="7.9999995mm"
   viewBox="0 0 8 7.9999998"
   version="1.1"
   id="svg1"
   xmlns="http://www.w3.org/2000/svg"
   xmlns:svg="http://www.w3.org/2000/svg">
  <defs
     id="defs1" />
  <g
     id="layer1"
     transform="translate(35.662837,-42.404388)">
    <path
       id="path46"
       style="fill:#5c3a78;fill-opacity:1;stroke:none;stroke-width:0.157052;stroke-dasharray:none;stroke-dashoffset:0;stroke-opacity:1"
       d="m -29.684932,43.048057 c 0,0 -0.276655,0.281736 -0.676323,0.68985 l -0.306191,-0.30619 -1.121467,1.121468 0.318487,0.318487 c -0.253532,0.259347 -0.507356,0.519273 -0.741497,0.759327 a 0.61213829,0.61213829 0 0 0 -0.211505,-0.03751 0.61213829,0.61213829 0 0 0 -0.61238,0.611765 0.61213829,0.61213829 0 0 0 0.04365,0.228106 c -0.05605,0.05796 -0.105033,0.108845 -0.146332,0.151866 -0.340809,0.35501 -0.720885,0.783584 -0.929638,1.26411 -0.10438,0.240263 -0.165391,0.49917 -0.137108,0.764245 0.02828,0.265077 0.151286,0.52757 0.374437,0.750721 0.209688,0.209688 0.419871,0.344038 0.636974,0.399644 0.217103,0.05561 0.430995,0.02352 0.612995,-0.05103 0.363999,-0.149108 0.638208,-0.436428 0.927179,-0.659723 l -0.0018,-0.0025 1.334817,-1.109171 -1.157743,0.438381 0.102064,0.230564 -0.210891,-0.156783 -0.380586,0.194904 -0.0018,-0.0025 c -0.32317,0.249721 -0.592696,0.502846 -0.806055,0.590247 -0.106676,0.0437 -0.18881,0.05441 -0.290819,0.02828 -0.102012,-0.02613 -0.233705,-0.09721 -0.399646,-0.263151 -0.15248,-0.152481 -0.211427,-0.292747 -0.227491,-0.443299 -0.01606,-0.150551 0.01781,-0.320724 0.09776,-0.504784 0.159922,-0.368121 0.502442,-0.772257 0.82942,-1.11286 0.04167,-0.0434 0.09155,-0.09515 0.14879,-0.154325 a 0.61213829,0.61213829 0 0 0 0.19429,0.03136 0.61213829,0.61213829 0 0 0 0.611765,-0.612381 0.61213829,0.61213829 0 0 0 -0.03689,-0.20966 c 0.233956,-0.239873 0.488101,-0.500089 0.742111,-0.759942 l 0.320946,0.320947 1.121467,-1.121468 -0.333242,-0.333243 c 0.401352,-0.409872 0.679398,-0.693539 0.679398,-0.693539 z" />
  </g>
</svg>
