<?xml version="1.0" encoding="UTF-8" standalone="no"?>
<!-- Created with Inkscape (http://www.inkscape.org/) -->

<svg
   width="11.940001mm"
   height="11.94mm"
   viewBox="0 0 11.940002 11.94"
   version="1.1"
   id="svg1"
   xmlns="http://www.w3.org/2000/svg"
   xmlns:svg="http://www.w3.org/2000/svg">
  <defs
     id="defs1" />
  <g
     id="layer1"
     transform="translate(-87.517512,-3.0208489)">
    <path
       id="rect21"
       style="baseline-shift:baseline;display:inline;overflow:visible;opacity:1;vector-effect:none;fill:#5d7388;stroke-width:0.955795;stroke-dasharray:1.35533, 0.677658;enable-background:accumulate;stop-color:#000000;stop-opacity:1"
       d="m 93.869497,5.8532304 v 0.6781701 h 1.355157 V 5.8532304 Z m 2.033327,0 V 6.5314005 H 97.25798 V 5.8532304 Z m 2.032144,0 v 0.6781701 h 0.349145 V 6.94209 h 0.67817 V 6.366888 l -0.01008,-0.089357 -0.03196,-0.1011933 -0.04852,-0.091133 -0.06569,-0.078706 -0.07811,-0.065095 -0.09113,-0.048526 -0.100601,-0.031955 -0.08995,-0.0077 z m -9.416269,0.00887 -0.08995,0.0077 -0.100601,0.031363 -0.09173,0.048526 -0.07811,0.065687 -0.06509,0.078114 -0.04912,0.091725 -0.03137,0.1006012 -0.0095,0.089949 v 0.5746102 h 0.677578 V 6.5396853 h 0.349145 V 5.862107 Z m 1.18887,0 v 0.6775783 h 1.355156 V 5.862107 Z m 2.032734,0 v 0.67758 H 93.09546 V 5.862107 Z m 6.544402,1.7575614 v 1.3551567 h 0.677578 v -1.355155 z m -10.281439,0.00828 v 1.3557486 h 0.677578 V 7.6279532 Z m 10.259543,1.846919 V 10.82943 h 0.677578 V 9.4748721 Z m -10.237056,0.00828 v 1.3551572 h 0.677579 V 9.483157 Z m 10.235873,2.0244502 v 0.41069 H 97.91248 v 0.677578 h 0.511883 l 0.08936,-0.0077 0.100005,-0.03196 0.09232,-0.04852 0.07811,-0.06509 0.06569,-0.07871 0.04852,-0.09113 0.03137,-0.100601 0.01065,-0.08936 v -0.575202 z m -10.235873,0.0089 v 0.57461 l 0.0095,0.08995 0.03137,0.100601 0.04852,0.09173 0.06569,0.07811 0.07811,0.06509 0.09173,0.04852 0.100601,0.03196 0.08936,0.0077 h 0.511882 v -0.677578 h -0.349144 v -0.410708 z m 5.821849,0.401813 v 0.677578 h 1.355156 V 11.91834 Z m 2.032143,0 v 0.677578 h 1.355748 V 11.91834 Z m -6.149689,0.0089 v 0.677578 h 1.355156 v -0.677578 z m 2.032735,0 v 0.677578 h 1.355156 v -0.677578 z" />
  </g>
</svg>
