<?xml version="1.0" encoding="UTF-8" standalone="no"?>
<!-- Created with Inkscape (http://www.inkscape.org/) -->

<svg
   width="512"
   height="512"
   viewBox="0 0 512 512"
   version="1.1"
   id="svg1"
   inkscape:version="1.4.2 (ebf0e940d0, 2025-05-08)"
   sodipodi:docname="Icon.svg"
   inkscape:export-filename="Icon.png"
   inkscape:export-xdpi="96"
   inkscape:export-ydpi="96"
   xmlns:inkscape="http://www.inkscape.org/namespaces/inkscape"
   xmlns:sodipodi="http://sodipodi.sourceforge.net/DTD/sodipodi-0.dtd"
   xmlns:xlink="http://www.w3.org/1999/xlink"
   xmlns="http://www.w3.org/2000/svg"
   xmlns:svg="http://www.w3.org/2000/svg">
  <sodipodi:namedview
     id="namedview1"
     pagecolor="#ffffff"
     bordercolor="#000000"
     borderopacity="0.25"
     inkscape:showpageshadow="2"
     inkscape:pageopacity="0.0"
     inkscape:pagecheckerboard="true"
     inkscape:deskcolor="#d1d1d1"
     inkscape:document-units="px"
     inkscape:zoom="0.35355339"
     inkscape:cx="-154.14928"
     inkscape:cy="220.61731"
     inkscape:window-width="1920"
     inkscape:window-height="1019"
     inkscape:window-x="1920"
     inkscape:window-y="30"
     inkscape:window-maximized="1"
     inkscape:current-layer="layer1">
    <inkscape:page
       x="0"
       y="0"
       width="512"
       height="512"
       id="page63"
       margin="0"
       bleed="0" />
    <inkscape:page
       x="-10"
       y="-641"
       width="512"
       height="512"
       id="page64"
       margin="0"
       bleed="0"
       inkscape:export-filename="icon-blue.png"
       inkscape:export-xdpi="96"
       inkscape:export-ydpi="96" />
  </sodipodi:namedview>
  <defs
     id="defs1">
    <linearGradient
       id="linearGradient61"
       inkscape:collect="always">
      <stop
         style="stop-color:#347ebd;stop-opacity:1;"
         offset="0"
         id="stop61" />
      <stop
         style="stop-color:#64cad8;stop-opacity:1;"
         offset="1"
         id="stop62" />
    </linearGradient>
    <linearGradient
       inkscape:collect="always"
       xlink:href="#linearGradient61"
       id="linearGradient62"
       x1="274.28983"
       y1="68.863113"
       x2="268.91104"
       y2="486.93158"
       gradientUnits="userSpaceOnUse"
       gradientTransform="translate(-32.914286,-4.8761905)" />
    <linearGradient
       inkscape:collect="always"
       xlink:href="#linearGradient61"
       id="linearGradient63"
       gradientUnits="userSpaceOnUse"
       gradientTransform="translate(-806.64844,-4.1328125)"
       x1="274.28983"
       y1="68.863113"
       x2="268.91104"
       y2="486.93158" />
  </defs>
  <g
     inkscape:label="Layer 1"
     inkscape:groupmode="layer"
     id="layer1">
    <text
       xml:space="preserve"
       style="font-weight:bold;font-size:575.041px;line-height:normal;font-family:'IBM Plex Mono';-inkscape-font-specification:'IBM Plex Mono Bold';text-align:start;text-decoration-color:#000000;writing-mode:lr-tb;direction:ltr;text-anchor:start;fill:#000000;fill-opacity:1;stroke:none;stroke-width:116.431;stroke-linejoin:round"
       x="83.936096"
       y="-218.40244"
       id="text1"><tspan
         sodipodi:role="line"
         id="tspan1"
         x="83.936096"
         y="-218.40244"
         style="font-style:normal;font-variant:normal;font-weight:normal;font-stretch:normal;font-family:Carlito;-inkscape-font-specification:Carlito;stroke-width:116.431">A</tspan></text>
    <text
       xml:space="preserve"
       style="font-weight:bold;font-size:575.041px;line-height:normal;font-family:'IBM Plex Mono';-inkscape-font-specification:'IBM Plex Mono Bold';text-align:start;text-decoration-color:#000000;writing-mode:lr-tb;direction:ltr;text-anchor:start;fill:#ffffff;fill-opacity:1;stroke:none;stroke-width:116.431;stroke-linejoin:round"
       x="74.480446"
       y="431.20444"
       id="text1-6"><tspan
         sodipodi:role="line"
         id="tspan1-2"
         x="74.480446"
         y="431.20444"
         style="font-style:normal;font-variant:normal;font-weight:normal;font-stretch:normal;font-family:Carlito;-inkscape-font-specification:Carlito;fill:#ffffff;fill-opacity:1;stroke-width:116.431">A</tspan></text>
    <path
       id="path1"
       style="font-size:575.041px;font-family:Carlito;-inkscape-font-specification:Carlito;stroke-width:116.431;stroke-linejoin:round"
       d="M 215.15798,62.256622 76.734154,431.20389 h 39.589836 c 4.30532,0 7.95421,-1.21695 10.94922,-3.65039 3.18219,-2.43344 5.33586,-5.23968 6.45898,-8.42188 l 31.16602,-88.44726 h 60.82422 a 173.71429,173.71429 0 0 1 10.66016,-36.50196 h -58.56836 l 52.22656,-148.25195 c 1.68468,-4.49251 3.4621,-9.7346 5.33398,-15.72461 1.87188,-5.99001 3.74336,-12.54116 5.61524,-19.6543 1.68469,6.92596 3.46405,13.38304 5.33593,19.37305 1.87188,5.99001 3.74337,11.2321 5.61524,15.72461 l 29.87695,84.97461 a 173.71429,173.71429 0 0 1 38.6543,-25.83203 L 267.10329,62.256622 Z" />
    <path
       id="text1-5-1"
       style="font-size:575.041px;font-family:Carlito;-inkscape-font-specification:Carlito;fill:#92c6f1;fill-opacity:1;stroke-width:116.431;stroke-linejoin:round"
       d="m 320.47243,204.79178 a 173.71429,173.71429 0 0 0 -1.09375,0.53906 h 1.29492 z m -6.875,3.55469 a 173.71429,173.71429 0 0 0 -7.20508,4.1582 v 3.59961 h 7.75781 v -7.75781 z m 3.56836,0 v 7.75781 h 7.54297 l -2.90625,-7.75781 z m -13.79102,6.03906 a 173.71429,173.71429 0 0 0 -2.64062,1.71875 h 2.64062 z m -7.03906,4.73633 a 173.71429,173.71429 0 0 0 -1.25781,0.90039 v 7.61133 h 8.29687 v -8.51172 z m 10.05664,0 v 8.51172 h 7.75781 v -8.51172 z m 10.77344,0 v 8.51172 h 8.51367 v -8.51172 z m -25.10547,3.13086 a 173.71429,173.71429 0 0 0 -6.76563,5.38086 h 6.76563 z m 36.63477,4.5 v 0.88086 h 0.33007 z m -44.39258,3.89843 v 7.03907 l 0.2539,0.71875 h 7.50391 v -7.75782 z m 10.77539,0 v 7.75782 h 8.29687 v -7.75782 z m 11.31445,0 v 7.75782 h 7.75781 v -7.75782 z m 10.77344,0 v 7.75782 h 8.51367 v -7.75782 z m 11.5293,0 v 7.75782 h 4.36523 l -2.90625,-7.75782 z m -43.07813,10.77539 3.0293,8.61915 h 3.41406 v -8.61915 z m 9.46094,0 v 8.61915 h 8.29687 v -8.61915 z m 11.31445,0 v 8.61915 h 7.75781 v -8.61915 z m 10.77344,0 v 8.61915 h 8.51367 v -8.61915 z m 11.5293,0 v 8.61915 h 7.75781 v -2.57422 l -2.26367,-6.04493 z m -38.98633,11.63672 2.35156,6.68946 v -6.68946 z m 5.36914,0 v 7.75782 h 8.29687 v -7.75782 z m 11.31445,0 v 7.75782 h 7.75781 v -7.75782 z m 10.77344,0 v 7.75782 h 8.51367 v -7.75782 z m 11.5293,0 v 7.75782 h 7.75781 v -7.75782 z m 10.77539,2.4668 v 5.29102 h 1.98046 z m -44.39258,8.30859 v 4.4961 l 1.41211,4.01562 h 6.88476 v -8.51172 z m 11.31445,0 v 8.51172 h 7.75781 v -8.51172 z m 10.77344,0 v 8.51172 h 8.51367 v -8.51172 z m 11.5293,0 v 8.51172 h 7.75781 v -8.51172 z m 10.77539,0 v 8.51172 h 6.29882 l -3.1875,-8.51172 z m -41.91993,11.5293 2.72852,7.75781 h 3.0957 v -7.75781 z m 8.8418,0 v 7.75781 h 7.75781 v -7.75781 z m 10.77344,0 v 7.75781 h 8.51367 v -7.75781 z m 11.5293,0 v 7.75781 h 7.75781 v -7.75781 z m 10.77539,0 v 7.75781 h 8.83593 v -3.99609 l -1.4082,-3.76172 z m -38.13086,10.77539 2.03515,5.78906 v -5.78906 z m 5.05273,0 v 8.29492 h 7.75781 v -8.29492 z m 10.77344,0 v 8.29492 h 8.51367 v -8.29492 z m 11.5293,0 v 8.29492 h 7.75781 v -8.29492 z m 10.77539,0 v 8.29492 h 8.83593 v -8.29492 z m 11.85351,1.04492 v 7.25 h 2.71484 z m -114.9414,6.99414 a 173.71429,173.71429 0 0 0 -0.10547,0.25586 h 0.29297 v -0.25586 z m 3.20507,0 v 0.25586 h 7.75782 v -0.25586 z m 10.77344,0 v 0.25586 h 8.62109 v -0.25586 z m 11.63672,0 v 0.25586 h 7.75977 v -0.25586 z m 10.77539,0 v 0.25586 h 8.51172 v -0.25586 z m 11.5293,0 v 0.25586 h 7.75781 v -0.25586 z m 10.77539,0 v 0.25586 h 8.29687 v -0.25586 z m -60.01758,3.27344 a 173.71429,173.71429 0 0 0 -2.82813,7.75781 h 4.3379 v -7.75781 z m 4.52734,0 v 7.75781 h 7.75782 v -7.75781 z m 10.77344,0 v 7.75781 h 8.62109 v -7.75781 z m 11.63672,0 v 7.75781 h 7.75977 v -7.75781 z m 10.77539,0 v 7.75781 h 8.51172 v -7.75781 z m 11.5293,0 v 7.75781 h 7.75781 v -7.75781 z m 10.77539,0 v 7.75781 h 8.29687 v -7.75781 z m 11.31445,0 v 7.75781 h 7.75781 v -7.75781 z m 10.77344,0 v 7.75781 h 8.51367 v -7.75781 z m 11.5293,0 v 7.75781 h 7.75781 v -7.75781 z m 10.77539,0 v 7.75781 h 8.83593 v -7.75781 z m 11.85351,0 v 7.75781 h 6.75 l -2.90625,-7.75781 z m -120.08203,10.77539 a 173.71429,173.71429 0 0 0 -2.4668,8.51172 h 7.79493 v -8.51172 z m 8.3457,0 v 8.51172 h 7.75782 v -8.51172 z m 10.77344,0 v 8.51172 h 8.62109 v -8.51172 z m 11.63672,0 v 8.51172 h 7.75977 v -8.51172 z m 10.77539,0 v 8.51172 h 8.51172 v -8.51172 z m 11.5293,0 v 8.51172 h 7.75781 v -8.51172 z m 10.77539,0 v 8.51172 h 8.29687 v -8.51172 z m 11.31445,0 v 8.51172 h 7.75781 v -8.51172 z m 10.77344,0 v 8.51172 h 8.51367 v -8.51172 z m 11.5293,0 v 8.51172 h 7.75781 v -8.51172 z m 10.77539,0 v 8.51172 h 8.83593 v -8.51172 z m 11.85351,0 v 8.51172 h 7.75781 v -8.51172 z m 10.77344,7.73047 v 0.78125 h 0.29297 z m -133.98242,3.79883 a 173.71429,173.71429 0 0 0 -0.0566,0.25586 v 7.50195 h 8.51172 v -7.75781 z m 11.47265,0 v 7.75781 h 7.75782 v -7.75781 z m 10.77344,0 v 7.75781 h 8.62109 v -7.75781 z m 11.63672,0 v 7.75781 h 7.75977 v -7.75781 z m 10.77539,0 v 7.75781 h 8.51172 v -7.75781 z m 11.5293,0 v 7.75781 h 7.75781 v -7.75781 z m 10.77539,0 v 7.75781 h 8.29687 v -7.75781 z m 11.31445,0 v 7.75781 h 7.75781 v -7.75781 z m 10.77344,0 v 7.75781 h 8.51367 v -7.75781 z m 11.5293,0 v 7.75781 h 7.75781 v -7.75781 z m 10.77539,0 v 7.75781 h 8.83593 v -7.75781 z m 11.85351,0 v 7.75781 h 7.75781 v -7.75781 z m 10.77344,0 v 7.75781 h 4.32812 l -2.90625,-7.75781 z m -134.03906,10.77539 v 0.14844 h 8.51172 v -0.14844 z m 11.52929,0 v 0.14844 h 7.75782 v -0.14844 z m 10.77344,0 v 0.14844 h 8.62109 v -0.14844 z m 11.63672,0 v 0.14844 h 7.75977 v -0.14844 z m 10.77539,0 v 0.14844 h 8.51172 v -0.14844 z m 11.5293,0 v 0.14844 h 7.75781 v -0.14844 z m 10.77539,0 v 0.14844 h 8.29687 v -0.14844 z m 11.31445,0 v 0.14844 h 7.75781 v -0.14844 z m 10.77344,0 v 0.38477 l 2.99414,8.44921 h 5.51953 v -8.83398 z m 11.5293,0 v 8.83398 h 7.75781 v -8.83398 z m 10.77539,0 v 8.83398 h 8.83593 v -8.83398 z m 11.85351,0 v 8.83398 h 7.75781 v -8.83398 z m 10.77344,0 v 8.83398 h 8.51367 v -0.67187 l -3.05664,-8.16211 z m -40.86719,11.85156 2.75,7.75781 h 1.69922 v -7.75781 z m 7.46485,0 v 7.75781 h 7.75781 v -7.75781 z m 10.77539,0 v 7.75781 h 8.83593 v -7.75781 z m 11.85351,0 v 7.75781 h 7.75781 v -7.75781 z m 10.77344,0 v 7.75781 h 8.51367 v -7.75781 z m 11.5293,4.36524 v 3.39257 h 1.26953 z m -48.57813,6.41015 0.63086,1.77735 v -1.77735 z m 3.64649,0 v 8.51172 h 7.75781 v -8.51172 z m 10.77539,0 v 8.51172 h 8.83593 v -8.51172 z m 11.85351,0 v 8.51172 h 7.75781 v -8.51172 z m 10.77344,0 v 8.51172 h 8.51367 v -8.51172 z m 11.5293,0 v 8.51172 h 5.58789 l -3.1875,-8.51172 z m -44.49024,11.5293 2.75,7.75781 h 4.56641 v -7.75781 z m 10.33399,0 v 7.75781 h 8.83593 v -7.75781 z m 11.85351,0 v 7.75781 h 7.75781 v -7.75781 z m 10.77344,0 v 7.75781 h 8.51367 v -7.75781 z m 11.5293,0 v 7.75781 h 7.75781 v -4.97851 l -1.04102,-2.7793 z m -40.67188,10.77539 2.94141,8.29687 h 0.55664 v -8.29687 z m 6.51563,0 v 8.29687 h 8.83593 v -8.29687 z m 11.85351,0 v 8.29687 h 7.75781 v -8.29687 z m 10.77344,0 v 8.29687 h 8.51367 v -8.29687 z m 11.5293,0 v 8.29687 h 7.75781 v -8.29687 z m 10.77539,0.0625 v 8.23437 h 3.08203 z m -44.93164,11.25 v 7.06836 l 0.24414,0.68945 h 8.59179 v -7.75781 z m 11.85351,0 v 7.75781 h 7.75781 v -7.75781 z m 10.77344,0 v 7.75781 h 8.51367 v -7.75781 z m 11.5293,0 v 7.75781 h 7.75781 v -7.75781 z m 10.77539,0 v 7.75781 h 7.11718 l -2.90429,-7.75781 z m -43.61719,10.77539 3.01562,8.51172 h 4.50586 v -8.51172 z m 10.53906,0 v 8.51172 h 7.75781 v -8.51172 z m 10.77344,0 v 8.51172 h 8.51367 v -8.51172 z m 11.5293,0 v 8.51172 h 7.75781 v -8.51172 z m 10.77539,0 v 8.51172 h 8.29687 v -8.37695 l -0.0508,-0.13477 z m 11.31445,8.19336 v 0.31836 h 0.11914 z m -50.8457,3.33594 2.75,7.75781 h 0.68554 v -7.75781 z m 6.45312,0 v 7.75781 h 7.75781 v -7.75781 z m 10.77344,0 v 7.75781 h 8.51367 v -7.75781 z m 11.5293,0 v 7.75781 h 7.75781 v -7.75781 z m 10.77539,0 v 7.75781 h 8.29687 v -7.75781 z m 11.31445,0 v 7.75781 h 4.1543 l -2.9043,-7.75781 z m -44.39258,10.77539 v 4.35351 c 0.99834,1.33608 2.12569,2.54356 3.38281,3.6211 0.283,0.22639 0.57489,0.44096 0.875,0.64453 h 3.5 v -8.61914 z m 10.77344,0 v 8.61914 h 8.51367 v -8.61914 z m 11.5293,0 v 8.61914 h 7.75781 v -8.61914 z m 10.77539,0 v 8.61914 h 8.29687 v -8.61914 z m 11.31445,0 v 8.61914 h 7.75781 v -2.01172 l -2.47461,-6.60742 z" />
    <path
       id="path1-2"
       style="font-size:575.041px;font-family:Carlito;-inkscape-font-specification:Carlito;fill:url(#linearGradient62);stroke-width:116.431;stroke-linejoin:round"
       d="M 215.15798,62.256622 76.734154,431.20389 h 39.589836 c 4.30532,0 7.95421,-1.21695 10.94922,-3.65039 3.18219,-2.43344 5.33586,-5.23968 6.45898,-8.42188 l 31.16602,-88.44726 h 83.99039 c 2.20693,-12.52076 -17.38444,-24.7614 -12.50601,-36.50196 h -58.56836 l 52.22656,-148.25195 c 1.68468,-4.49251 3.4621,-9.7346 5.33398,-15.72461 1.87188,-5.99001 3.74336,-12.54116 5.61524,-19.6543 1.68469,6.92596 3.46405,13.38304 5.33593,19.37305 1.87188,5.99001 3.74337,11.2321 5.61524,15.72461 l 29.87695,84.97461 c 11.66912,-10.30375 33.78645,5.06647 47.77046,-1.77334 L 267.10329,62.256622 Z"
       sodipodi:nodetypes="ccscccccccscsccccc" />
    <path
       id="rect61"
       style="fill:none;stroke:#5aa2e0;stroke-width:8;stroke-linejoin:round;stroke-dasharray:none"
       d="m 330.44397,202.2352 22.64762,-8.57614 c 0.48957,-0.18539 1.03295,0.0595 1.21834,0.54905 l 83.51754,220.55069 c 0.18539,0.48956 -0.0595,1.03294 -0.54907,1.21833 l -22.64762,8.57614"
       sodipodi:nodetypes="cssssc" />
    <path
       id="rect61-0"
       style="fill:none;stroke:#5aa2e0;stroke-width:8;stroke-linejoin:round;stroke-dasharray:none"
       d="m 404.05278,437.62318 0.18649,24.21632 c 0.004,0.52348 -0.41414,0.95233 -0.93763,0.9522 l -49.46533,-0.0125 c -0.52349,-1.3e-4 -0.94815,-0.41415 -0.95218,-0.93763 l -0.18648,-24.21632"
       sodipodi:nodetypes="cssssc" />
    <path
       id="path1-0"
       style="font-size:575.041px;font-family:Carlito;-inkscape-font-specification:Carlito;stroke-width:116.431;stroke-linejoin:round"
       d="M -558.57617,63 -697,431.94727 h 39.58984 c 4.30532,0 7.95421,-1.21695 10.94922,-3.65039 3.18219,-2.43344 5.33586,-5.23968 6.45898,-8.42188 l 31.16602,-88.44726 h 60.82422 a 173.71429,173.71429 0 0 1 10.66016,-36.50196 h -58.56836 l 52.22656,-148.25195 c 1.68468,-4.49251 3.4621,-9.7346 5.33398,-15.72461 1.87188,-5.99001 3.74336,-12.54116 5.61524,-19.6543 1.68469,6.92596 3.46405,13.38304 5.33593,19.37305 1.87188,5.99001 3.74337,11.2321 5.61524,15.72461 l 29.87695,84.97461 a 173.71429,173.71429 0 0 1 38.6543,-25.83203 L -506.63086,63 Z" />
    <path
       id="text1-5-1-8"
       style="font-size:575.041px;font-family:Carlito;-inkscape-font-specification:Carlito;fill:#92c6f1;fill-opacity:1;stroke-width:116.431;stroke-linejoin:round"
       d="m -453.26172,205.53516 a 173.71429,173.71429 0 0 0 -1.09375,0.53906 h 1.29492 z m -6.875,3.55469 a 173.71429,173.71429 0 0 0 -7.20508,4.1582 v 3.59961 h 7.75781 v -7.75781 z m 3.56836,0 v 7.75781 h 7.54297 l -2.90625,-7.75781 z m -13.79102,6.03906 A 173.71429,173.71429 0 0 0 -473,216.84766 h 2.64062 z m -7.03906,4.73633 a 173.71429,173.71429 0 0 0 -1.25781,0.90039 v 7.61133 h 8.29687 v -8.51172 z m 10.05664,0 v 8.51172 h 7.75781 v -8.51172 z m 10.77344,0 v 8.51172 h 8.51367 v -8.51172 z m -25.10547,3.13086 a 173.71429,173.71429 0 0 0 -6.76563,5.38086 h 6.76563 z m 36.63477,4.5 v 0.88086 h 0.33007 z m -44.39258,3.89843 v 7.03907 l 0.2539,0.71875 h 7.50391 v -7.75782 z m 10.77539,0 v 7.75782 h 8.29687 v -7.75782 z m 11.31445,0 v 7.75782 h 7.75781 v -7.75782 z m 10.77344,0 v 7.75782 h 8.51367 v -7.75782 z m 11.5293,0 v 7.75782 h 4.36523 l -2.90625,-7.75782 z m -43.07813,10.77539 3.0293,8.61915 h 3.41406 v -8.61915 z m 9.46094,0 v 8.61915 h 8.29687 v -8.61915 z m 11.31445,0 v 8.61915 h 7.75781 v -8.61915 z m 10.77344,0 v 8.61915 h 8.51367 v -8.61915 z m 11.5293,0 v 8.61915 h 7.75781 v -2.57422 l -2.26367,-6.04493 z m -38.98633,11.63672 2.35156,6.68946 v -6.68946 z m 5.36914,0 v 7.75782 h 8.29687 v -7.75782 z m 11.31445,0 v 7.75782 h 7.75781 v -7.75782 z m 10.77344,0 v 7.75782 h 8.51367 v -7.75782 z m 11.5293,0 v 7.75782 h 7.75781 v -7.75782 z m 10.77539,2.4668 v 5.29102 h 1.98046 z m -44.39258,8.30859 v 4.4961 l 1.41211,4.01562 h 6.88476 v -8.51172 z m 11.31445,0 v 8.51172 h 7.75781 v -8.51172 z m 10.77344,0 v 8.51172 h 8.51367 v -8.51172 z m 11.5293,0 v 8.51172 h 7.75781 v -8.51172 z m 10.77539,0 v 8.51172 h 6.29882 l -3.1875,-8.51172 z m -41.91993,11.5293 2.72852,7.75781 h 3.0957 v -7.75781 z m 8.8418,0 v 7.75781 h 7.75781 v -7.75781 z m 10.77344,0 v 7.75781 h 8.51367 v -7.75781 z m 11.5293,0 v 7.75781 h 7.75781 v -7.75781 z m 10.77539,0 v 7.75781 h 8.83593 v -3.99609 l -1.4082,-3.76172 z m -38.13086,10.77539 2.03515,5.78906 v -5.78906 z m 5.05273,0 v 8.29492 h 7.75781 v -8.29492 z m 10.77344,0 v 8.29492 h 8.51367 v -8.29492 z m 11.5293,0 v 8.29492 h 7.75781 v -8.29492 z m 10.77539,0 v 8.29492 h 8.83593 v -8.29492 z m 11.85351,1.04492 v 7.25 h 2.71484 z m -114.9414,6.99414 a 173.71429,173.71429 0 0 0 -0.10547,0.25586 h 0.29297 v -0.25586 z m 3.20507,0 v 0.25586 h 7.75782 v -0.25586 z m 10.77344,0 v 0.25586 h 8.62109 v -0.25586 z m 11.63672,0 v 0.25586 h 7.75977 v -0.25586 z m 10.77539,0 v 0.25586 h 8.51172 v -0.25586 z m 11.5293,0 v 0.25586 h 7.75781 v -0.25586 z m 10.77539,0 v 0.25586 h 8.29687 v -0.25586 z m -60.01758,3.27344 a 173.71429,173.71429 0 0 0 -2.82813,7.75781 h 4.3379 v -7.75781 z m 4.52734,0 v 7.75781 h 7.75782 v -7.75781 z m 10.77344,0 v 7.75781 h 8.62109 v -7.75781 z m 11.63672,0 v 7.75781 h 7.75977 v -7.75781 z m 10.77539,0 v 7.75781 h 8.51172 v -7.75781 z m 11.5293,0 v 7.75781 h 7.75781 v -7.75781 z m 10.77539,0 v 7.75781 h 8.29687 v -7.75781 z m 11.31445,0 v 7.75781 h 7.75781 v -7.75781 z m 10.77344,0 v 7.75781 h 8.51367 v -7.75781 z m 11.5293,0 v 7.75781 h 7.75781 v -7.75781 z m 10.77539,0 v 7.75781 h 8.83593 v -7.75781 z m 11.85351,0 v 7.75781 h 6.75 l -2.90625,-7.75781 z m -120.08203,10.77539 a 173.71429,173.71429 0 0 0 -2.4668,8.51172 h 7.79493 v -8.51172 z m 8.3457,0 v 8.51172 h 7.75782 v -8.51172 z m 10.77344,0 v 8.51172 h 8.62109 v -8.51172 z m 11.63672,0 v 8.51172 h 7.75977 v -8.51172 z m 10.77539,0 v 8.51172 h 8.51172 v -8.51172 z m 11.5293,0 v 8.51172 h 7.75781 v -8.51172 z m 10.77539,0 v 8.51172 h 8.29687 v -8.51172 z m 11.31445,0 v 8.51172 h 7.75781 v -8.51172 z m 10.77344,0 v 8.51172 h 8.51367 v -8.51172 z m 11.5293,0 v 8.51172 h 7.75781 v -8.51172 z m 10.77539,0 v 8.51172 h 8.83593 v -8.51172 z m 11.85351,0 v 8.51172 h 7.75781 v -8.51172 z m 10.77344,7.73047 v 0.78125 h 0.29297 z m -133.98242,3.79883 a 173.71429,173.71429 0 0 0 -0.0566,0.25586 v 7.50195 h 8.51172 v -7.75781 z m 11.47265,0 v 7.75781 h 7.75782 v -7.75781 z m 10.77344,0 v 7.75781 h 8.62109 v -7.75781 z m 11.63672,0 v 7.75781 h 7.75977 v -7.75781 z m 10.77539,0 v 7.75781 h 8.51172 v -7.75781 z m 11.5293,0 v 7.75781 h 7.75781 v -7.75781 z m 10.77539,0 v 7.75781 h 8.29687 v -7.75781 z m 11.31445,0 v 7.75781 h 7.75781 v -7.75781 z m 10.77344,0 v 7.75781 h 8.51367 v -7.75781 z m 11.5293,0 v 7.75781 h 7.75781 v -7.75781 z m 10.77539,0 v 7.75781 h 8.83593 v -7.75781 z m 11.85351,0 v 7.75781 h 7.75781 v -7.75781 z m 10.77344,0 v 7.75781 h 4.32812 l -2.90625,-7.75781 z m -134.03906,10.77539 v 0.14844 h 8.51172 v -0.14844 z m 11.52929,0 v 0.14844 h 7.75782 v -0.14844 z m 10.77344,0 v 0.14844 h 8.62109 v -0.14844 z m 11.63672,0 v 0.14844 h 7.75977 v -0.14844 z m 10.77539,0 v 0.14844 h 8.51172 v -0.14844 z m 11.5293,0 v 0.14844 h 7.75781 v -0.14844 z m 10.77539,0 v 0.14844 h 8.29687 v -0.14844 z m 11.31445,0 v 0.14844 h 7.75781 v -0.14844 z m 10.77344,0 v 0.38477 l 2.99414,8.44921 h 5.51953 v -8.83398 z m 11.5293,0 v 8.83398 h 7.75781 v -8.83398 z m 10.77539,0 v 8.83398 h 8.83593 v -8.83398 z m 11.85351,0 v 8.83398 h 7.75781 v -8.83398 z m 10.77344,0 v 8.83398 h 8.51367 v -0.67187 l -3.05664,-8.16211 z m -40.86719,11.85156 2.75,7.75781 h 1.69922 v -7.75781 z m 7.46485,0 v 7.75781 h 7.75781 v -7.75781 z m 10.77539,0 v 7.75781 h 8.83593 v -7.75781 z m 11.85351,0 v 7.75781 h 7.75781 v -7.75781 z m 10.77344,0 v 7.75781 h 8.51367 v -7.75781 z m 11.5293,4.36524 v 3.39257 h 1.26953 z m -48.57813,6.41015 0.63086,1.77735 v -1.77735 z m 3.64649,0 v 8.51172 h 7.75781 v -8.51172 z m 10.77539,0 v 8.51172 h 8.83593 v -8.51172 z m 11.85351,0 v 8.51172 h 7.75781 v -8.51172 z m 10.77344,0 v 8.51172 h 8.51367 v -8.51172 z m 11.5293,0 v 8.51172 h 5.58789 l -3.1875,-8.51172 z m -44.49024,11.5293 2.75,7.75781 h 4.56641 v -7.75781 z m 10.33399,0 v 7.75781 h 8.83593 v -7.75781 z m 11.85351,0 v 7.75781 h 7.75781 v -7.75781 z m 10.77344,0 v 7.75781 h 8.51367 v -7.75781 z m 11.5293,0 v 7.75781 h 7.75781 v -4.97851 l -1.04102,-2.7793 z m -40.67188,10.77539 2.94141,8.29687 h 0.55664 v -8.29687 z m 6.51563,0 v 8.29687 h 8.83593 v -8.29687 z m 11.85351,0 v 8.29687 h 7.75781 v -8.29687 z m 10.77344,0 v 8.29687 h 8.51367 v -8.29687 z m 11.5293,0 v 8.29687 h 7.75781 v -8.29687 z m 10.77539,0.0625 v 8.23437 h 3.08203 z m -44.93164,11.25 v 7.06836 l 0.24414,0.68945 h 8.59179 v -7.75781 z m 11.85351,0 v 7.75781 h 7.75781 v -7.75781 z m 10.77344,0 v 7.75781 h 8.51367 v -7.75781 z m 11.5293,0 v 7.75781 h 7.75781 v -7.75781 z m 10.77539,0 v 7.75781 h 7.11718 l -2.90429,-7.75781 z m -43.61719,10.77539 3.01562,8.51172 h 4.50586 v -8.51172 z m 10.53906,0 v 8.51172 h 7.75781 v -8.51172 z m 10.77344,0 v 8.51172 h 8.51367 v -8.51172 z m 11.5293,0 v 8.51172 h 7.75781 v -8.51172 z m 10.77539,0 v 8.51172 h 8.29687 v -8.37695 l -0.0508,-0.13477 z m 11.31445,8.19336 v 0.31836 h 0.11914 z m -50.8457,3.33594 2.75,7.75781 h 0.68554 v -7.75781 z m 6.45312,0 v 7.75781 h 7.75781 v -7.75781 z m 10.77344,0 v 7.75781 h 8.51367 v -7.75781 z m 11.5293,0 v 7.75781 h 7.75781 v -7.75781 z m 10.77539,0 v 7.75781 h 8.29687 v -7.75781 z m 11.31445,0 v 7.75781 h 4.1543 l -2.9043,-7.75781 z m -44.39258,10.77539 v 4.35351 c 0.99834,1.33608 2.12569,2.54356 3.38281,3.6211 0.283,0.22639 0.57489,0.44096 0.875,0.64453 h 3.5 v -8.61914 z m 10.77344,0 v 8.61914 h 8.51367 v -8.61914 z m 11.5293,0 v 8.61914 h 7.75781 v -8.61914 z m 10.77539,0 v 8.61914 h 8.29687 v -8.61914 z m 11.31445,0 v 8.61914 h 7.75781 v -2.01172 l -2.47461,-6.60742 z" />
    <path
       id="path1-2-5"
       style="font-size:575.041px;font-family:Carlito;-inkscape-font-specification:Carlito;fill:url(#linearGradient63);stroke-width:116.431;stroke-linejoin:round"
       d="M -558.57617,63 -697,431.94727 h 39.58984 c 4.30532,0 7.95421,-1.21695 10.94922,-3.65039 3.18219,-2.43344 5.33586,-5.23968 6.45898,-8.42188 l 31.16602,-88.44726 h 83.99039 c 2.20693,-12.52076 -17.38444,-24.7614 -12.50601,-36.50196 h -58.56836 l 52.22656,-148.25195 c 1.68468,-4.49251 3.4621,-9.7346 5.33398,-15.72461 1.87188,-5.99001 3.74336,-12.54116 5.61524,-19.6543 1.68469,6.92596 3.46405,13.38304 5.33593,19.37305 1.87188,5.99001 3.74337,11.2321 5.61524,15.72461 l 29.87695,84.97461 c 11.66912,-10.30375 34.11791,4.77921 48.10192,-2.0606 L -506.63086,63 Z"
       sodipodi:nodetypes="ccscccccccscsccccc" />
    <path
       id="rect61-06"
       style="fill:none;stroke:#5aa2e0;stroke-width:8;stroke-linejoin:round;stroke-dasharray:none"
       d="m -443.29018,202.97858 22.64762,-8.57614 c 0.48957,-0.18539 1.03295,0.0595 1.21834,0.54905 l 83.51754,220.55069 c 0.18539,0.48956 -0.0595,1.03294 -0.54907,1.21833 l -22.64762,8.57614"
       sodipodi:nodetypes="cssssc" />
    <path
       id="rect61-0-4"
       style="fill:none;stroke:#5aa2e0;stroke-width:8;stroke-linejoin:round;stroke-dasharray:none"
       d="m -369.68137,438.36656 0.18649,24.21632 c 0.004,0.52348 -0.41414,0.95233 -0.93763,0.9522 l -49.46533,-0.0125 c -0.52349,-1.3e-4 -0.94815,-0.41415 -0.95218,-0.93763 l -0.18648,-24.21632"
       sodipodi:nodetypes="cssssc" />
  </g>
</svg>
